<svg width="907" height="400" xmlns="https://www.w3.org/2000/svg">
  <g fill="#1B1B1B" fill-rule="evenodd">
    <path d="M165.813 200a65.36 65.36 0 0 1-4.408 23.665c-32.604-16.475-54.967-50.264-54.967-89.29a99.807 99.807 0 0 1 5.81-33.651 99.258 99.258 0 0 1 27.308 7.335 71.657 71.657 0 0 0-4.993 26.316c0 24.465 12.233 46.059 30.907 59.037.218 2.168.343 4.362.343 6.588zm-20.588-89.303c32.604 16.476 54.963 50.277 54.963 89.303 0 55.229-44.772 100-100.001 100v-28.125c39.696 0 71.876-32.18 71.876-71.875 0-24.471-12.24-46.073-30.92-59.053a66.07 66.07 0 0 1-.33-6.572c0-8.35 1.566-16.332 4.412-23.678zm103.122 121.336c11.78 23.613 36.159 39.842 64.341 39.842V300c-41.142 0-76.476-24.849-91.826-60.354a105.453 105.453 0 0 0 27.485-7.613zm-6.813-42.227a65.224 65.224 0 0 1-28.839 9.887c.154-51.008 38.494-93.025 87.937-98.967 3.122 8.734 5.042 18.036 5.61 27.701-33.29 2.961-60.053 28.606-64.708 61.379zm36.045-45.226a65.168 65.168 0 0 1 28.855-9.902c-.164 55.089-44.869 99.697-99.996 99.697-1.891 0-3.767-.058-5.631-.161a105.836 105.836 0 0 0 5.443-27.969c.063 0 .125.005.188.005 36.229 0 66.184-26.81 71.141-61.67zM412.688 250V150h22.316v80.115h42.632V250h-64.948zm165.593 0l-9.308-21.623h-41.957L517.708 250h-23.77l43.246-100.096h21.622L602.052 250h-23.771zm-30.215-70.311l-12.601 29.07h25.059l-12.458-29.07zm115.832 70.967h-44.062V150h39.168c6.814 0 12.693.816 17.639 2.449 4.943 1.633 8.664 3.84 11.16 6.623 4.511 5.184 6.767 11.041 6.767 17.569 0 7.873-2.543 13.728-7.631 17.568-1.728 1.346-2.929 2.184-3.599 2.52-.674.337-1.873.888-3.602 1.656 6.241 1.345 11.209 4.152 14.905 8.424 3.695 4.271 5.545 9.576 5.545 15.912 0 7.008-2.401 13.201-7.202 18.576-5.568 6.24-15.263 9.359-29.088 9.359zm-21.599-19.008h15.408c6.43 0 11.254-.793 14.473-2.377 3.215-1.583 4.824-4.701 4.824-9.359 0-4.654-1.707-7.726-5.113-9.217-3.409-1.486-8.856-2.23-16.344-2.23h-13.248v23.183zm0-40.896h10.656c6.24 0 10.873-.67 13.897-2.016 3.023-1.343 4.535-4.248 4.535-8.713 0-4.462-1.393-7.416-4.176-8.855-2.785-1.439-7.488-2.16-14.111-2.16h-10.801v21.744zm113.983-21.216c-2.183 1.814-3.276 4.214-3.276 7.201 0 2.99 1.334 5.364 4.006 7.128 2.669 1.762 8.834 3.845 18.496 6.245 9.66 2.402 17.162 6.002 22.502 10.801 5.339 4.802 8.011 11.808 8.011 21.015 0 9.211-3.423 16.679-10.268 22.411-6.845 5.731-15.853 8.597-27.017 8.597-16.12 0-30.636-6.025-43.548-18.076l13.544-16.753c10.972 9.7 21.12 14.548 30.441 14.548 4.174 0 7.45-.903 9.83-2.717 2.379-1.812 3.569-4.263 3.569-7.348 0-3.086-1.263-5.534-3.787-7.349-2.526-1.81-7.525-3.647-15.002-5.51-11.847-2.841-20.513-6.54-25.997-11.095-5.487-4.556-8.229-11.707-8.229-21.456 0-9.747 3.47-17.268 10.413-22.558 6.941-5.29 15.607-7.936 25.999-7.936 6.795 0 13.593 1.176 20.389 3.527 6.796 2.352 12.72 5.683 17.77 9.994l-11.506 16.753c-8.837-6.76-17.966-10.141-27.383-10.141-3.786 0-6.771.907-8.957 2.719z"/>
  </g>
</svg>
